<svg data-name="Слой 1" xmlns="http://www.w3.org/2000/svg" viewBox="0 0 245.01 52.34"><g data-name="Слой 2"><path d="M66.71 31.1V7.9h2.65v21h12v2.2H66.71zM95.77 7.9l10 22.3a2.11 2.11 0 01-1 .65 4.07 4.07 0 01-1.32.48l-3-6.76h-11.8l-3 6.76a4.28 4.28 0 01-1.31-.5 2.38 2.38 0 01-1-.63L92.49 10h-1.75a1.08 1.08 0 01-.67-.4 1.1 1.1 0 01-.4-.6 1.12 1.12 0 01.4-.66 1.08 1.08 0 01.67-.4h5zm-1.22 3.25l-5 11.26h10zM111.08 25v2.41a8 8 0 005.3 1.69 6.7 6.7 0 003.94-1 3.32 3.32 0 001.49-2.9 2.52 2.52 0 00-1-2.14 26.46 26.46 0 00-4.26-2.2l-.66-.3a19.76 19.76 0 01-5.17-3 4.81 4.81 0 01-1.49-3.72 5.5 5.5 0 012-4.44 8.21 8.21 0 015.5-1.66 9.56 9.56 0 016.79 2.48v3.91a1.1 1.1 0 01-.4.68 1.12 1.12 0 01-.66.42 1.13 1.13 0 01-.68-.42 1.11 1.11 0 01-.42-.68v-2.58a7.28 7.28 0 00-4.7-1.59A5.61 5.61 0 00113 11a3.22 3.22 0 00-1.29 2.62 2.76 2.76 0 001.2 2.3 26.43 26.43 0 004.5 2.44 25.32 25.32 0 015.53 3.2 4.35 4.35 0 011.4 3.43 5.62 5.62 0 01-2.12 4.7 9.35 9.35 0 01-5.9 1.66 11.21 11.21 0 01-7.43-2.49V25a1.13 1.13 0 01.39-.68 1 1 0 01.64-.42 1.19 1.19 0 01.7.42 1.08 1.08 0 01.46.68zm16.37-15.39A1 1 0 01127 9a1.07 1.07 0 01.4-.66 1 1 0 01.66-.4h17.2v2.15h-12.44v8.16H144v2.18h-11.18v8.55h12.65v2.12h-15.3V10h-2.06a1.09 1.09 0 01-.66-.39zm20.97 0A1.07 1.07 0 01148 9a1.12 1.12 0 01.4-.66 1.09 1.09 0 01.66-.4h9.81a7.44 7.44 0 015.29 1.91 6.39 6.39 0 012 4.88 6.46 6.46 0 01-1.41 4.18 6.86 6.86 0 01-3.8 2.35 42.51 42.51 0 006.53 8.45 1.9 1.9 0 01-.71 1 2 2 0 01-1.05.66 40.74 40.74 0 01-7.35-9.88h-4.64v9.61h-2.65V10H149a1.14 1.14 0 01-.58-.39zm10.34.44h-5v9.25h5a4.68 4.68 0 003.45-1.3 4.5 4.5 0 001.29-3.32 4.51 4.51 0 00-1.29-3.34 4.68 4.68 0 00-3.45-1.29zm19.72-.44a1 1 0 01-.4-.65 1.07 1.07 0 01.4-.66 1 1 0 01.66-.4h10.14a7.36 7.36 0 015.3 2 6.59 6.59 0 012 5 6.55 6.55 0 01-2 5 7.39 7.39 0 01-5.3 2h-5.44v9.2h-2.65V10h-2.05a1.09 1.09 0 01-.66-.39zm10.66.44h-5.3v9.58h5.3a4.68 4.68 0 003.47-1.32 4.73 4.73 0 001.31-3.45 4.75 4.75 0 00-1.31-3.46 4.62 4.62 0 00-3.47-1.35zm10.41-.44a1 1 0 01-.4-.65 1.07 1.07 0 01.4-.66 1 1 0 01.66-.4H210a7.43 7.43 0 015.28 1.91 6.39 6.39 0 012 4.88 6.46 6.46 0 01-1.41 4.18 6.83 6.83 0 01-3.79 2.35 42.51 42.51 0 006.53 8.45 1.88 1.88 0 01-.72 1 2.1 2.1 0 01-1 .66 40.49 40.49 0 01-7.35-9.88h-4.64v9.65h-2.66V10h-2a1.09 1.09 0 01-.69-.39zm10.34.44h-5v9.25h5a4.65 4.65 0 003.44-1.3 4.5 4.5 0 001.29-3.32 4.51 4.51 0 00-1.29-3.34 4.66 4.66 0 00-3.44-1.29zM225 28a11.57 11.57 0 01-3.29-8.46A11.6 11.6 0 01225 11a12 12 0 0116.69 0 11.61 11.61 0 013.31 8.5 11.59 11.59 0 01-3.3 8.5 12 12 0 01-16.7 0zm2-15.34a9.71 9.71 0 00-2.44 6.88 9.68 9.68 0 002.44 6.83 9 9 0 0012.73 0 9.63 9.63 0 002.45-6.87 9.68 9.68 0 00-2.45-6.88 9.07 9.07 0 00-12.77 0zM72.18 40.71V42a.49.49 0 01-.18.3.46.46 0 01-.28.18.45.45 0 01-.29-.18.49.49 0 01-.18-.3v-.86a2 2 0 00-1.39-.43 2.25 2.25 0 00-1.71.67 2.48 2.48 0 00-.63 1.76 2.42 2.42 0 00.63 1.73 2.29 2.29 0 001.74.67 2.63 2.63 0 001.79-.54.75.75 0 01.41.26.67.67 0 01.26.41 3.46 3.46 0 01-2.5.92 3.51 3.51 0 01-2.55-1 3.32 3.32 0 01-1-2.47 3.28 3.28 0 011-2.46 3.47 3.47 0 012.54-1 4 4 0 011.22.18 2.61 2.61 0 01.84.42.81.81 0 01.28.45zm1.33.06v-.94h6.32v.94h-2.59v5.71h-1.15v-5.71h-2.58zm13.88-.53l-4.34 9.6a1.86 1.86 0 01-.61-.22 1 1 0 01-.44-.28l1.49-2.86-2.75-6.24a.82.82 0 01.42-.24 1.92 1.92 0 01.58-.2L84 45.1l2.34-5.34A2 2 0 0187 40a.64.64 0 01.39.24zm6.92 6.24h-5.37l-.13 2.08h-.88l-.11-3h.88a4.43 4.43 0 00.85-2.78v-2.95h4.79v5.71h1.08l-.1 3h-.86zm-3.68-3.72a5.14 5.14 0 01-.78 2.78h3.34v-4.77h-2.56v2zM98 46.48h-.83v-6.65h1.16v4.79l3.91-4.79h.76v6.65h-1.14v-4.79zm12-6.65v6.65h-1.15v-2.72h-1.23a11.29 11.29 0 01-2.07 2.82.89.89 0 01-.45-.26.8.8 0 01-.32-.4 12.86 12.86 0 001.71-2.23 1.77 1.77 0 01-1.49-1.91 1.82 1.82 0 01.58-1.42 2.53 2.53 0 011.75-.53H110zm-2.68 3h1.53v-2.06h-1.53a1 1 0 00-1.23 1.06 1 1 0 001.27 1zm9.68-.1v-2.9h4.74v6.65h-1.16v-5.71h-2.5v2a4.9 4.9 0 01-.17 1.33 4.75 4.75 0 01-.44 1.08 6.58 6.58 0 01-.54.78 4 4 0 01-.48.5.6.6 0 01-.25.16.74.74 0 01-.39-.21.55.55 0 01-.25-.35 4.47 4.47 0 001.44-3.33zm9.32-3.01a2.77 2.77 0 011.87.56 2.07 2.07 0 01.65 1.67v3.25a6.66 6.66 0 000 .68.6.6 0 00.06.38v.22h-.7a.63.63 0 01-.34-.22.84.84 0 01-.24-.34 2.82 2.82 0 01-1.88.66 2.38 2.38 0 01-1.57-.49 1.7 1.7 0 01-.6-1.41 1.79 1.79 0 01.75-1.54 3.66 3.66 0 012.16-.54 7.11 7.11 0 011.14.09V42a1.15 1.15 0 00-.38-1 1.61 1.61 0 00-1.07-.32 2.28 2.28 0 00-1.71.65.74.74 0 01-.42-.27.73.73 0 01-.27-.41 3.43 3.43 0 012.55-.93zm-1.53 4.87a.94.94 0 00.34.79 1.48 1.48 0 00.94.27 2.21 2.21 0 001.61-.67v-1.44a7.44 7.44 0 00-1.12-.09q-1.77 0-1.77 1.14zm7.27-1.1v-.86h1.22a1.16 1.16 0 00.82-.29.9.9 0 00.31-.66.85.85 0 00-.41-.68 1.63 1.63 0 00-1-.28 2.59 2.59 0 00-1.67.58.62.62 0 01-.37-.23.63.63 0 01-.22-.38 3.33 3.33 0 012.41-1 2.74 2.74 0 011.77.51 1.61 1.61 0 01.64 1.3 1.56 1.56 0 01-.26.84 1.78 1.78 0 01-.75.65 1.82 1.82 0 011 .61 1.65 1.65 0 01.36 1 1.63 1.63 0 01-.72 1.38 3.29 3.29 0 01-2 .52 3.7 3.7 0 01-2.64-.93.64.64 0 01.23-.38.66.66 0 01.38-.23 2.63 2.63 0 001.88.56 2.19 2.19 0 001.23-.3 1 1 0 00.24-1.39l-.11-.13a1.36 1.36 0 00-.93-.29zm10.94.03h-4.62a2.06 2.06 0 00.7 1.5 2.46 2.46 0 001.69.55 2.78 2.78 0 001.87-.56.67.67 0 01.38.24.73.73 0 01.25.4 3.41 3.41 0 01-2.53.93 3.54 3.54 0 01-2.57-1 3.64 3.64 0 01-.06-5 3.22 3.22 0 012.42-1 2.76 2.76 0 012.19.89 3.49 3.49 0 01.78 2.39.53.53 0 01-.19.32.37.37 0 01-.31.34zm-2.51-2.79a2.12 2.12 0 00-1.47.52 1.9 1.9 0 00-.64 1.39h4a2 2 0 00-.49-1.39 1.8 1.8 0 00-1.37-.52zm7.59 5.85a3.87 3.87 0 01-1.51-.29v3.54h-1.16v-8.72a6.59 6.59 0 000-.67 2.1 2.1 0 00-.06-.38v-.23h.7a.59.59 0 01.32.21.83.83 0 01.26.35 2.67 2.67 0 011.83-.67 3 3 0 012.31 1 3.42 3.42 0 01.91 2.44 3.33 3.33 0 01-1 2.49 3.54 3.54 0 01-2.6.93zm2.32-3.43a2.49 2.49 0 00-.62-1.74 2.15 2.15 0 00-1.65-.67 2.28 2.28 0 00-1.56.55v3.91a2.81 2.81 0 001.47.39 2.25 2.25 0 001.72-.68 2.44 2.44 0 00.64-1.76zm7.85 3.33v-2.94h-3.58v2.94h-1.16v-6.65h1.16v2.77h3.58v-2.77h1.15v6.65h-1.15zm3.04-3.32a3.5 3.5 0 017 0 3.26 3.26 0 01-1 2.45 3.67 3.67 0 01-5 0 3.29 3.29 0 01-1-2.45zm1.23 0a2.42 2.42 0 00.63 1.74 2.08 2.08 0 001.61.67 2.12 2.12 0 001.63-.67 2.45 2.45 0 00.62-1.74 2.49 2.49 0 00-.62-1.75 2.12 2.12 0 00-1.63-.67 2.08 2.08 0 00-1.61.67 2.46 2.46 0 00-.63 1.75zm8.48 3.32h-.83v-6.65h1.16v4.79l3.91-4.79h.76v6.65h-1.14v-4.79zm4.21-9.25l-.08.16a3.88 3.88 0 01-.22.36 2.87 2.87 0 01-.39.45 2.3 2.3 0 01-.59.35 2.15 2.15 0 01-.8.15 2.38 2.38 0 01-.81-.14 1.58 1.58 0 01-.6-.37 3.16 3.16 0 01-.39-.44 2.76 2.76 0 01-.24-.37l-.09-.15a.46.46 0 01.23-.27.79.79 0 01.37-.16.21.21 0 000 .11 1.1 1.1 0 00.16.26 1.74 1.74 0 00.28.32 1.58 1.58 0 00.43.26 1.66 1.66 0 00.58.11 1.44 1.44 0 00.86-.27 1.41 1.41 0 00.49-.54l.13-.25a.83.83 0 01.37.16.46.46 0 01.23.27h.05zm8.29 6.31v-.87h3.05a2.22 2.22 0 00-.75-1.4 2.38 2.38 0 00-1.59-.53 2.6 2.6 0 00-1.78.58 1.11 1.11 0 01-.67-.67 3.85 3.85 0 015.05 0 3.58 3.58 0 010 4.94 3.51 3.51 0 01-2.55 1 3.45 3.45 0 01-2.5-.92.75.75 0 01.26-.41.72.72 0 01.41-.26 2.61 2.61 0 001.78.57 2.33 2.33 0 001.62-.56 2.3 2.3 0 00.73-1.46h-3.06zm10.84 2.94v-5.71h-3.51v5.71h-1.16v-6.65h5.81v6.65h-1.14zm4.31 0h-.83v-6.65H199v4.79l3.91-4.79h.81v6.65h-1.14v-4.79zm8.13-3.75v-2.9h4.75v6.65h-1.16v-5.71h-2.5v2a4.91 4.91 0 01-.18 1.33 4.75 4.75 0 01-.44 1.08 4.84 4.84 0 01-.54.78 4 4 0 01-.48.5.6.6 0 01-.25.16.74.74 0 01-.39-.21.55.55 0 01-.25-.35 4.47 4.47 0 001.44-3.33zm11.76-2.9v6.65h-1.14v-2.72h-1.24a11 11 0 01-2.06 2.82.94.94 0 01-.46-.26.8.8 0 01-.32-.4 11.94 11.94 0 001.68-2.23 1.77 1.77 0 01-1.56-1.91 1.85 1.85 0 01.58-1.42 2.55 2.55 0 011.76-.53h2.76zm-2.67 3h1.53v-2.06h-1.53a1 1 0 00-1.24 1.06 1 1 0 001.24 1.05zm9.68 2.71v-5.71h1.14v5.71h1.13l-.16 3h-.88l-.07-2.08h-5.83v-6.63H222v5.71h3.55zm4.78.94h-.83v-6.65h1.16v4.79l3.91-4.79h.82v6.65h-1.15v-4.79zm8.23 0h-.84v-6.65h1.16v4.79l3.91-4.79h.82v6.65h-1.14v-4.79zM6.9 3.45A3.45 3.45 0 113.45 0 3.45 3.45 0 016.9 3.45zm11.36 0A3.45 3.45 0 1114.81 0a3.46 3.46 0 013.45 3.45zm11.36 0A3.45 3.45 0 1126.17 0a3.45 3.45 0 013.45 3.45zm11.38 0A3.45 3.45 0 1137.53 0 3.45 3.45 0 0141 3.45zm11.34 0A3.45 3.45 0 1148.89 0a3.45 3.45 0 013.45 3.45zM6.9 14.81a3.45 3.45 0 11-3.45-3.45 3.46 3.46 0 013.45 3.45zm11.36 0a3.45 3.45 0 11-3.45-3.45 3.46 3.46 0 013.45 3.45zm11.36 0a3.45 3.45 0 11-3.45-3.45 3.45 3.45 0 013.45 3.45zm11.38 0a3.45 3.45 0 11-3.45-3.45A3.45 3.45 0 0141 14.81zm11.34 0a3.45 3.45 0 11-3.45-3.45 3.45 3.45 0 013.45 3.45zM6.9 26.17a3.45 3.45 0 11-3.45-3.45 3.45 3.45 0 013.45 3.45zm11.36 0a3.45 3.45 0 11-3.45-3.45 3.45 3.45 0 013.45 3.45zm22.74 0a3.45 3.45 0 11-3.45-3.45A3.45 3.45 0 0141 26.17zm11.34 0a3.45 3.45 0 11-3.45-3.45 3.45 3.45 0 013.45 3.45zM6.9 37.53a3.45 3.45 0 11-3.45-3.45 3.45 3.45 0 013.45 3.45zm11.36 0a3.45 3.45 0 11-3.45-3.45 3.45 3.45 0 013.45 3.45zm11.36 0a3.45 3.45 0 11-3.45-3.45 3.45 3.45 0 013.45 3.45zm11.38 0a3.45 3.45 0 11-3.45-3.45A3.45 3.45 0 0141 37.53zm11.34 0a3.45 3.45 0 11-3.45-3.45 3.45 3.45 0 013.45 3.45zM6.9 48.89a3.45 3.45 0 11-3.45-3.45 3.45 3.45 0 013.45 3.45zm11.36 0a3.45 3.45 0 11-3.45-3.45 3.45 3.45 0 013.45 3.45zm11.36 0a3.45 3.45 0 11-3.45-3.45 3.45 3.45 0 013.45 3.45zm11.38 0a3.45 3.45 0 11-3.45-3.45A3.45 3.45 0 0141 48.89zm11.34 0a3.45 3.45 0 11-3.45-3.45 3.45 3.45 0 013.45 3.45z" fill="#000100" data-name="Layer 1"/></g></svg>