<svg id="Слой_1" data-name="Слой 1" xmlns="http://www.w3.org/2000/svg" viewBox="0 0 245.01 52.34"><defs><style>.cls-1{fill:#000100;}</style></defs><title>logo</title><g id="Слой_2" data-name="Слой 2"><g id="Layer_1" data-name="Layer 1"><path class="cls-1" d="M66.71,31.1V7.9h2.65v21h12v2.2H66.71Z"/><path class="cls-1" d="M95.77,7.9l10,22.3a2.11,2.11,0,0,1-1,.65,4.07,4.07,0,0,1-1.32.48l-3-6.76H88.65l-3,6.76a4.28,4.28,0,0,1-1.31-.5,2.38,2.38,0,0,1-1-.63L92.49,10H90.74a1.08,1.08,0,0,1-.67-0.4A1.1,1.1,0,0,1,89.67,9a1.12,1.12,0,0,1,.4-0.66,1.08,1.08,0,0,1,.67-0.4h5Zm-1.22,3.25-5,11.26h10Z"/><path class="cls-1" d="M111.08,25v2.41a8,8,0,0,0,5.3,1.69,6.7,6.7,0,0,0,3.94-1,3.32,3.32,0,0,0,1.49-2.9,2.52,2.52,0,0,0-1-2.14,26.46,26.46,0,0,0-4.26-2.2l-0.66-.3a19.76,19.76,0,0,1-5.17-3,4.81,4.81,0,0,1-1.49-3.72,5.5,5.5,0,0,1,2-4.44,8.21,8.21,0,0,1,5.5-1.66,9.56,9.56,0,0,1,6.79,2.48v3.91a1.1,1.1,0,0,1-.4.68,1.12,1.12,0,0,1-.66.42,1.13,1.13,0,0,1-.68-0.42,1.11,1.11,0,0,1-.42-0.68V11.55a7.28,7.28,0,0,0-4.7-1.59A5.61,5.61,0,0,0,113,11a3.22,3.22,0,0,0-1.29,2.62,2.76,2.76,0,0,0,1.2,2.3,26.43,26.43,0,0,0,4.5,2.44,25.32,25.32,0,0,1,5.53,3.2,4.35,4.35,0,0,1,1.4,3.43,5.62,5.62,0,0,1-2.12,4.7,9.35,9.35,0,0,1-5.9,1.66,11.21,11.21,0,0,1-7.43-2.49V25a1.13,1.13,0,0,1,.39-0.68,1,1,0,0,1,.64-0.42,1.19,1.19,0,0,1,.7.42A1.08,1.08,0,0,1,111.08,25Z"/><path class="cls-1" d="M127.45,9.61A1,1,0,0,1,127,9a1.07,1.07,0,0,1,.4-0.66,1,1,0,0,1,.66-0.4h17.2v2.15H132.82v8.16H144v2.18H132.82v8.55h12.65V31.1h-15.3V10h-2.06A1.09,1.09,0,0,1,127.45,9.61Z"/><path class="cls-1" d="M148.42,9.61A1.07,1.07,0,0,1,148,9a1.12,1.12,0,0,1,.4-0.66,1.09,1.09,0,0,1,.66-0.4h9.81a7.44,7.44,0,0,1,5.29,1.91,6.39,6.39,0,0,1,2,4.88,6.46,6.46,0,0,1-1.41,4.18,6.86,6.86,0,0,1-3.8,2.35,42.51,42.51,0,0,0,6.53,8.45,1.9,1.9,0,0,1-.71,1,2,2,0,0,1-1.05.66,40.74,40.74,0,0,1-7.35-9.88h-4.64V31.1h-2.65V10H149A1.14,1.14,0,0,1,148.42,9.61Zm10.34,0.44h-5V19.3h5a4.68,4.68,0,0,0,3.45-1.3,4.5,4.5,0,0,0,1.29-3.32,4.51,4.51,0,0,0-1.29-3.34A4.68,4.68,0,0,0,158.76,10.05Z"/><path class="cls-1" d="M178.48,9.61a1,1,0,0,1-.4-0.65,1.07,1.07,0,0,1,.4-0.66,1,1,0,0,1,.66-0.4h10.14a7.36,7.36,0,0,1,5.3,2,6.59,6.59,0,0,1,2,5,6.55,6.55,0,0,1-2,5,7.39,7.39,0,0,1-5.3,2h-5.44v9.2h-2.65V10h-2.05A1.09,1.09,0,0,1,178.48,9.61Zm10.66,0.44h-5.3v9.58h5.3a4.68,4.68,0,0,0,3.47-1.32,4.73,4.73,0,0,0,1.31-3.45,4.75,4.75,0,0,0-1.31-3.46A4.62,4.62,0,0,0,189.14,10.05Z"/><path class="cls-1" d="M199.55,9.61a1,1,0,0,1-.4-0.65,1.07,1.07,0,0,1,.4-0.66,1,1,0,0,1,.66-0.4H210a7.43,7.43,0,0,1,5.28,1.91,6.39,6.39,0,0,1,2,4.88,6.46,6.46,0,0,1-1.41,4.18,6.83,6.83,0,0,1-3.79,2.35,42.51,42.51,0,0,0,6.53,8.45,1.88,1.88,0,0,1-.72,1,2.1,2.1,0,0,1-1,.66,40.49,40.49,0,0,1-7.35-9.88H204.9V31.1h-2.66V10h-2A1.09,1.09,0,0,1,199.55,9.61Zm10.34,0.44h-5V19.3h5a4.65,4.65,0,0,0,3.44-1.3,4.5,4.5,0,0,0,1.29-3.32,4.51,4.51,0,0,0-1.29-3.34A4.66,4.66,0,0,0,209.89,10.05Z"/><path class="cls-1" d="M225,28a11.57,11.57,0,0,1-3.29-8.46A11.6,11.6,0,0,1,225,11a12,12,0,0,1,16.69,0A11.61,11.61,0,0,1,245,19.5a11.59,11.59,0,0,1-3.3,8.5A12,12,0,0,1,225,28Zm2-15.34a9.71,9.71,0,0,0-2.44,6.88A9.68,9.68,0,0,0,227,26.37a9,9,0,0,0,12.73,0l0,0a9.63,9.63,0,0,0,2.45-6.87,9.68,9.68,0,0,0-2.45-6.88,9.07,9.07,0,0,0-12.77,0v0Z"/><path class="cls-1" d="M72.18,40.71V42a0.49,0.49,0,0,1-.18.3,0.46,0.46,0,0,1-.28.18,0.45,0.45,0,0,1-.29-0.18,0.49,0.49,0,0,1-.18-0.3V41.14a2,2,0,0,0-1.39-.43,2.25,2.25,0,0,0-1.71.67,2.48,2.48,0,0,0-.63,1.76,2.42,2.42,0,0,0,.63,1.73,2.29,2.29,0,0,0,1.74.67A2.63,2.63,0,0,0,71.68,45a0.75,0.75,0,0,1,.41.26,0.67,0.67,0,0,1,.26.41,3.46,3.46,0,0,1-2.5.92,3.51,3.51,0,0,1-2.55-1,3.32,3.32,0,0,1-1-2.47,3.28,3.28,0,0,1,1-2.46,3.47,3.47,0,0,1,2.54-1,4,4,0,0,1,1.22.18,2.61,2.61,0,0,1,.84.42A0.81,0.81,0,0,1,72.18,40.71Z"/><path class="cls-1" d="M73.51,40.77V39.83h6.32v0.94H77.24v5.71H76.09V40.77H73.51Z"/><path class="cls-1" d="M87.39,40.24l-4.34,9.6a1.86,1.86,0,0,1-.61-0.22A1,1,0,0,1,82,49.34l1.49-2.86-2.75-6.24A0.82,0.82,0,0,1,81.16,40a1.92,1.92,0,0,1,.58-0.2L84,45.1l2.34-5.34A2,2,0,0,1,87,40,0.64,0.64,0,0,1,87.39,40.24Z"/><path class="cls-1" d="M94.31,46.48H88.94l-0.13,2.08H87.93l-0.11-3H88.7a4.43,4.43,0,0,0,.85-2.78V39.83h4.79v5.71h1.08l-0.1,3H94.46Zm-3.68-3.72a5.14,5.14,0,0,1-.78,2.78h3.34V40.77H90.63v2Z"/><path class="cls-1" d="M98,46.48H97.17V39.83h1.16v4.79l3.91-4.79H103v6.65h-1.14V41.69Z"/><path class="cls-1" d="M110,39.83v6.65h-1.15V43.76h-1.23a11.29,11.29,0,0,1-2.07,2.82,0.89,0.89,0,0,1-.45-0.26,0.8,0.8,0,0,1-.32-0.4,12.86,12.86,0,0,0,1.71-2.23A1.77,1.77,0,0,1,105,41.78a1.82,1.82,0,0,1,.58-1.42,2.53,2.53,0,0,1,1.75-.53H110Zm-2.68,3h1.53V40.77h-1.53a1,1,0,0,0-1.23,1.06,1,1,0,0,0,1.27,1h0Z"/><path class="cls-1" d="M117,42.73v-2.9h4.74v6.65h-1.16V40.77h-2.5v2a4.9,4.9,0,0,1-.17,1.33,4.75,4.75,0,0,1-.44,1.08,6.58,6.58,0,0,1-.54.78,4,4,0,0,1-.48.5,0.6,0.6,0,0,1-.25.16,0.74,0.74,0,0,1-.39-0.21,0.55,0.55,0,0,1-.25-0.35A4.47,4.47,0,0,0,117,42.73Z"/><path class="cls-1" d="M126.32,39.72a2.77,2.77,0,0,1,1.87.56,2.07,2.07,0,0,1,.65,1.67V45.2a6.66,6.66,0,0,0,0,.68,0.6,0.6,0,0,0,.06.38v0.22h-0.7a0.63,0.63,0,0,1-.34-0.22,0.84,0.84,0,0,1-.24-0.34,2.82,2.82,0,0,1-1.88.66,2.38,2.38,0,0,1-1.57-.49,1.7,1.7,0,0,1-.6-1.41,1.79,1.79,0,0,1,.75-1.54,3.66,3.66,0,0,1,2.16-.54,7.11,7.11,0,0,1,1.14.09V42a1.15,1.15,0,0,0-.38-1,1.61,1.61,0,0,0-1.07-.32,2.28,2.28,0,0,0-1.71.65,0.74,0.74,0,0,1-.42-0.27,0.73,0.73,0,0,1-.27-0.41A3.43,3.43,0,0,1,126.32,39.72Zm-1.53,4.87a0.94,0.94,0,0,0,.34.79,1.48,1.48,0,0,0,.94.27,2.21,2.21,0,0,0,1.61-.67V43.54a7.44,7.44,0,0,0-1.12-.09Q124.79,43.45,124.79,44.59Z"/><path class="cls-1" d="M132.06,43.49V42.63h1.22a1.16,1.16,0,0,0,.82-0.29,0.9,0.9,0,0,0,.31-0.66A0.85,0.85,0,0,0,134,41a1.63,1.63,0,0,0-1-.28,2.59,2.59,0,0,0-1.67.58,0.62,0.62,0,0,1-.37-0.23,0.63,0.63,0,0,1-.22-0.38,3.33,3.33,0,0,1,2.41-1,2.74,2.74,0,0,1,1.77.51,1.61,1.61,0,0,1,.64,1.3,1.56,1.56,0,0,1-.26.84,1.78,1.78,0,0,1-.75.65,1.82,1.82,0,0,1,1,.61,1.65,1.65,0,0,1,.36,1,1.63,1.63,0,0,1-.72,1.38,3.29,3.29,0,0,1-2,.52,3.7,3.7,0,0,1-2.64-.93,0.64,0.64,0,0,1,.23-0.38,0.66,0.66,0,0,1,.38-0.23,2.63,2.63,0,0,0,1.88.56,2.19,2.19,0,0,0,1.23-.3,1,1,0,0,0,.24-1.39l-0.11-.13a1.36,1.36,0,0,0-.93-0.29Z"/><path class="cls-1" d="M143,43.52h-4.62a2.06,2.06,0,0,0,.7,1.5,2.46,2.46,0,0,0,1.69.55,2.78,2.78,0,0,0,1.87-.56,0.67,0.67,0,0,1,.38.24,0.73,0.73,0,0,1,.25.4,3.41,3.41,0,0,1-2.53.93,3.54,3.54,0,0,1-2.57-1,3.64,3.64,0,0,1-.06-5,3.22,3.22,0,0,1,2.42-1,2.76,2.76,0,0,1,2.19.89,3.49,3.49,0,0,1,.78,2.39,0.53,0.53,0,0,1-.19.32A0.37,0.37,0,0,1,143,43.52Zm-2.51-2.79a2.12,2.12,0,0,0-1.47.52,1.9,1.9,0,0,0-.64,1.39h4a2,2,0,0,0-.49-1.39,1.8,1.8,0,0,0-1.37-.52h0Z"/><path class="cls-1" d="M148.08,46.58a3.87,3.87,0,0,1-1.51-.29v3.54h-1.16V41.11a6.59,6.59,0,0,0,0-.67,2.1,2.1,0,0,0-.06-0.38V39.83h0.7a0.59,0.59,0,0,1,.32.21,0.83,0.83,0,0,1,.26.35,2.67,2.67,0,0,1,1.83-.67,3,3,0,0,1,2.31,1,3.42,3.42,0,0,1,.91,2.44,3.33,3.33,0,0,1-1,2.49A3.54,3.54,0,0,1,148.08,46.58Zm2.32-3.43a2.49,2.49,0,0,0-.62-1.74,2.15,2.15,0,0,0-1.65-.67,2.28,2.28,0,0,0-1.56.55V45.2a2.81,2.81,0,0,0,1.47.39,2.25,2.25,0,0,0,1.72-.68,2.44,2.44,0,0,0,.64-1.76h0Z"/><path class="cls-1" d="M158.25,46.48V43.54h-3.58v2.94h-1.16V39.83h1.16V42.6h3.58V39.83h1.15v6.65h-1.15Z"/><path class="cls-1" d="M161.29,43.16a3.5,3.5,0,0,1,7,0,3.26,3.26,0,0,1-1,2.45,3.67,3.67,0,0,1-5,0A3.29,3.29,0,0,1,161.29,43.16Zm1.23,0a2.42,2.42,0,0,0,.63,1.74,2.08,2.08,0,0,0,1.61.67,2.12,2.12,0,0,0,1.63-.67,2.45,2.45,0,0,0,.62-1.74,2.49,2.49,0,0,0-.62-1.75,2.12,2.12,0,0,0-1.63-.67,2.08,2.08,0,0,0-1.61.67,2.46,2.46,0,0,0-.63,1.75h0Z"/><path class="cls-1" d="M171,46.48h-0.83V39.83h1.16v4.79l3.91-4.79H176v6.65h-1.14V41.69Zm4.21-9.25-0.08.16a3.88,3.88,0,0,1-.22.36,2.87,2.87,0,0,1-.39.45,2.3,2.3,0,0,1-.59.35,2.15,2.15,0,0,1-.8.15,2.38,2.38,0,0,1-.81-0.14,1.58,1.58,0,0,1-.6-0.37,3.16,3.16,0,0,1-.39-0.44,2.76,2.76,0,0,1-.24-0.37L171,37.23a0.46,0.46,0,0,1,.23-0.27,0.79,0.79,0,0,1,.37-0.16,0.21,0.21,0,0,0,0,.11,1.1,1.1,0,0,0,.16.26,1.74,1.74,0,0,0,.28.32,1.58,1.58,0,0,0,.43.26,1.66,1.66,0,0,0,.58.11,1.44,1.44,0,0,0,.86-0.27,1.41,1.41,0,0,0,.49-0.54l0.13-.25a0.83,0.83,0,0,1,.37.16,0.46,0.46,0,0,1,.23.27h0.05Z"/><path class="cls-1" d="M183.5,43.54V42.67h3.05a2.22,2.22,0,0,0-.75-1.4,2.38,2.38,0,0,0-1.59-.53,2.6,2.6,0,0,0-1.78.58,1.11,1.11,0,0,1-.67-0.67,3.85,3.85,0,0,1,5.05,0,3.58,3.58,0,0,1,0,4.94,3.51,3.51,0,0,1-2.55,1,3.45,3.45,0,0,1-2.5-.92,0.75,0.75,0,0,1,.26-0.41,0.72,0.72,0,0,1,.41-0.26,2.61,2.61,0,0,0,1.78.57,2.33,2.33,0,0,0,1.62-.56,2.3,2.3,0,0,0,.73-1.46H183.5Z"/><path class="cls-1" d="M194.34,46.48V40.77h-3.51v5.71h-1.16V39.83h5.81v6.65h-1.14Z"/><path class="cls-1" d="M198.65,46.48h-0.83V39.83H199v4.79l3.91-4.79h0.81v6.65h-1.14V41.69Z"/><path class="cls-1" d="M206.78,42.73v-2.9h4.75v6.65h-1.16V40.77h-2.5v2a4.91,4.91,0,0,1-.18,1.33,4.75,4.75,0,0,1-.44,1.08,4.84,4.84,0,0,1-.54.78,4,4,0,0,1-.48.5,0.6,0.6,0,0,1-.25.16,0.74,0.74,0,0,1-.39-0.21,0.55,0.55,0,0,1-.25-0.35A4.47,4.47,0,0,0,206.78,42.73Z"/><path class="cls-1" d="M218.54,39.83v6.65H217.4V43.76h-1.24a11,11,0,0,1-2.06,2.82,0.94,0.94,0,0,1-.46-0.26,0.8,0.8,0,0,1-.32-0.4A11.94,11.94,0,0,0,215,43.69a1.77,1.77,0,0,1-1.56-1.91,1.85,1.85,0,0,1,.58-1.42,2.55,2.55,0,0,1,1.76-.53h2.76Zm-2.67,3h1.53V40.77h-1.53a1,1,0,0,0-1.24,1.06A1,1,0,0,0,215.87,42.88Z"/><path class="cls-1" d="M225.55,45.54V39.83h1.14v5.71h1.13l-0.16,3h-0.88l-0.07-2.08h-5.83V39.83H222v5.71h3.55Z"/><path class="cls-1" d="M230.33,46.48H229.5V39.83h1.16v4.79l3.91-4.79h0.82v6.65h-1.15V41.69Z"/><path class="cls-1" d="M238.56,46.48h-0.84V39.83h1.16v4.79l3.91-4.79h0.82v6.65h-1.14V41.69Z"/><path class="cls-1" d="M6.9,3.45A3.45,3.45,0,1,1,3.45,0,3.45,3.45,0,0,1,6.9,3.45Z"/><path class="cls-1" d="M18.26,3.45A3.45,3.45,0,1,1,14.81,0h0A3.46,3.46,0,0,1,18.26,3.45Z"/><path class="cls-1" d="M29.62,3.45A3.45,3.45,0,1,1,26.17,0,3.45,3.45,0,0,1,29.62,3.45Z"/><path class="cls-1" d="M41,3.45A3.45,3.45,0,1,1,37.53,0,3.45,3.45,0,0,1,41,3.45h0Z"/><path class="cls-1" d="M52.34,3.45A3.45,3.45,0,1,1,48.89,0,3.45,3.45,0,0,1,52.34,3.45Z"/><path class="cls-1" d="M6.9,14.81a3.45,3.45,0,1,1-3.45-3.45h0A3.46,3.46,0,0,1,6.9,14.81Z"/><path class="cls-1" d="M18.26,14.81a3.45,3.45,0,1,1-3.45-3.45h0A3.46,3.46,0,0,1,18.26,14.81Z"/><path class="cls-1" d="M29.62,14.81a3.45,3.45,0,1,1-3.45-3.45A3.45,3.45,0,0,1,29.62,14.81Z"/><path class="cls-1" d="M41,14.81a3.45,3.45,0,1,1-3.45-3.45A3.45,3.45,0,0,1,41,14.81Z"/><path class="cls-1" d="M52.34,14.81a3.45,3.45,0,1,1-3.45-3.45A3.45,3.45,0,0,1,52.34,14.81Z"/><path class="cls-1" d="M6.9,26.17a3.45,3.45,0,1,1-3.45-3.45A3.45,3.45,0,0,1,6.9,26.17Z"/><path class="cls-1" d="M18.26,26.17a3.45,3.45,0,1,1-3.45-3.45A3.45,3.45,0,0,1,18.26,26.17Z"/><path class="cls-1" d="M41,26.17a3.45,3.45,0,1,1-3.45-3.45A3.45,3.45,0,0,1,41,26.17Z"/><path class="cls-1" d="M52.34,26.17a3.45,3.45,0,1,1-3.45-3.45A3.45,3.45,0,0,1,52.34,26.17Z"/><path class="cls-1" d="M6.9,37.53a3.45,3.45,0,1,1-3.45-3.45A3.45,3.45,0,0,1,6.9,37.53Z"/><path class="cls-1" d="M18.26,37.53a3.45,3.45,0,1,1-3.45-3.45A3.45,3.45,0,0,1,18.26,37.53Z"/><path class="cls-1" d="M29.62,37.53a3.45,3.45,0,1,1-3.45-3.45A3.45,3.45,0,0,1,29.62,37.53Z"/><path class="cls-1" d="M41,37.53a3.45,3.45,0,1,1-3.45-3.45A3.45,3.45,0,0,1,41,37.53Z"/><path class="cls-1" d="M52.34,37.53a3.45,3.45,0,1,1-3.45-3.45A3.45,3.45,0,0,1,52.34,37.53Z"/><path class="cls-1" d="M6.9,48.89a3.45,3.45,0,1,1-3.45-3.45A3.45,3.45,0,0,1,6.9,48.89h0Z"/><path class="cls-1" d="M18.26,48.89a3.45,3.45,0,1,1-3.45-3.45,3.45,3.45,0,0,1,3.45,3.45h0Z"/><path class="cls-1" d="M29.62,48.89a3.45,3.45,0,1,1-3.45-3.45,3.45,3.45,0,0,1,3.45,3.45h0Z"/><path class="cls-1" d="M41,48.89a3.45,3.45,0,1,1-3.45-3.45A3.45,3.45,0,0,1,41,48.89h0Z"/><path class="cls-1" d="M52.34,48.89a3.45,3.45,0,1,1-3.45-3.45,3.45,3.45,0,0,1,3.45,3.45h0Z"/></g></g></svg>