<svg id="Слой_1" width="39px" height="57px"  data-name="Слой 1" xmlns="http://www.w3.org/2000/svg" viewBox="0 0 39 57.46"><defs><style>.cls-1{fill:#5873F5;}</style></defs><title>pin</title><path class="cls-1" d="M19.5,0A19.52,19.52,0,0,0,0,19.5c0,4.32,2.54,10.89,8,20.68,3.73,6.68,7.44,12.32,7.59,12.56l2.68,4.06a1.46,1.46,0,0,0,2.44,0l2.68-4.06c0.15-.23,3.84-5.83,7.59-12.56,5.46-9.79,8-16.36,8-20.68A19.52,19.52,0,0,0,19.5,0Zm8.94,38.76C24.74,45.39,21.11,50.9,21,51.13L19.5,53.34,18,51.13c-0.15-.23-3.81-5.79-7.48-12.37C5.49,29.68,2.92,23.2,2.92,19.5a16.58,16.58,0,0,1,33.16,0C36.08,23.2,33.51,29.68,28.44,38.76Z"/><path class="cls-1" d="M19.5,8.57A10.81,10.81,0,1,0,30.31,19.38,10.82,10.82,0,0,0,19.5,8.57Zm0,18.7a7.89,7.89,0,1,1,7.89-7.89A7.9,7.9,0,0,1,19.5,27.27Z"/></svg>