<svg id="Слой_1" width="39" height="57" data-name="Слой 1" xmlns="http://www.w3.org/2000/svg" viewBox="0 0 39 57.46"><defs><style>.cls-1{fill:#5873f5}</style></defs><path class="cls-1" d="M19.5 0A19.52 19.52 0 000 19.5c0 4.32 2.54 10.89 8 20.68 3.73 6.68 7.44 12.32 7.59 12.56l2.68 4.06a1.46 1.46 0 002.44 0l2.68-4.06c.15-.23 3.84-5.83 7.59-12.56 5.46-9.79 8-16.36 8-20.68A19.52 19.52 0 0019.5 0zm8.94 38.76c-3.7 6.63-7.33 12.14-7.44 12.37l-1.5 2.21-1.5-2.21c-.15-.23-3.81-5.79-7.48-12.37-5.03-9.08-7.6-15.56-7.6-19.26a16.58 16.58 0 0133.16 0c0 3.7-2.57 10.18-7.64 19.26z"/><path class="cls-1" d="M19.5 8.57a10.81 10.81 0 1010.81 10.81A10.82 10.82 0 0019.5 8.57zm0 18.7a7.89 7.89 0 117.89-7.89 7.9 7.9 0 01-7.89 7.89z"/></svg>