<?xml version="1.0" encoding="utf-8"?><svg xmlns="http://www.w3.org/2000/svg" xmlns:xlink="http://www.w3.org/1999/xlink"><symbol viewBox="0 0 7.95 15.38" id="fb" xmlns="http://www.w3.org/2000/svg"><path d="M8 0v3.08H6.36a1 1 0 00-.8 1.15v1.92H8v3.08H5.57v6.15H2.39V9.23H0V6.15h2.39V3.08A3.13 3.13 0 015.57 0H8z"/></symbol><symbol id="ok" viewBox="0 0 20 33.31" xmlns="http://www.w3.org/2000/svg"><defs><style>.bcls-1{fill:#000100}</style></defs><path class="bcls-1" d="M8.36 23.46A12.94 12.94 0 011.46 21c-.25-.2-.46-.38-.73-.6a2 2 0 01-.27-2.79A2 2 0 013.07 17a4 4 0 01.57.34 11.32 11.32 0 0012.55.11 3.4 3.4 0 011.22-.63 1.92 1.92 0 012.2.88 1.86 1.86 0 01-.13 2.45 10.13 10.13 0 01-3.65 2.36 17.13 17.13 0 01-4.14.93l.45.48c1.86 1.94 3.86 3.86 5.75 5.8a1.9 1.9 0 01.42 2.28 2.27 2.27 0 01-2.13 1.33 2.08 2.08 0 01-1.35-.69c-1.45-1.46-2.92-2.89-4.34-4.37-.41-.43-.61-.35-1 0-1.46 1.5-2.94 3-4.42 4.44a1.86 1.86 0 01-2.24.4A2.26 2.26 0 011.55 31a2.09 2.09 0 01.7-1.4l5.68-5.69z"/><path class="bcls-1" d="M9.93 16.86a8.43 8.43 0 118.48-8.32 8.43 8.43 0 01-8.48 8.32zm4.19-8.44A4.12 4.12 0 1010 12.56a4.11 4.11 0 004.12-4.14z"/></symbol><symbol viewBox="0 0 16.07 13.33" id="twitter" xmlns="http://www.w3.org/2000/svg"><path d="M16.07 1.57a6.48 6.48 0 01-1.89.54A3.36 3.36 0 0015.62.24a6.56 6.56 0 01-2.09.82A3.21 3.21 0 0011.11 0a3.33 3.33 0 00-3.28 3.36 3.57 3.57 0 00.08.77A9.31 9.31 0 011.12.62a3.38 3.38 0 00-.44 1.69A3.33 3.33 0 002.14 5.1a3.21 3.21 0 01-1.5-.39A3.35 3.35 0 003.29 8a3.17 3.17 0 01-1.48.05 3.3 3.3 0 003.07 2.34 6.46 6.46 0 01-4.1 1.47 6.56 6.56 0 01-.78 0 9.19 9.19 0 005.05 1.51 9.43 9.43 0 009.38-9.58v-.44a6.66 6.66 0 001.64-1.78z"/></symbol><symbol viewBox="0 0 14.39 8.47" id="vk" xmlns="http://www.w3.org/2000/svg"><path d="M12.82 5.85a6.51 6.51 0 011.43 1.71c.48.82-.52.88-.52.88h-1.92a1.32 1.32 0 01-1-.3c-.68-.49-1.37-1.82-1.89-1.64s-.51 1.37-.51 1.37a.49.49 0 01-.12.3.47.47 0 01-.4.09H7a4.57 4.57 0 01-3.53-1.59A24.23 24.23 0 010 .87a.45.45 0 010-.36.72.72 0 01.47-.13h2.06a.53.53 0 01.33.12.69.69 0 01.14.27 13.74 13.74 0 00.78 1.64c.86 1.53 1.25 1.86 1.53 1.7.45-.24.32-2.16.32-2.16a2.18 2.18 0 00-.22-1A1 1 0 004.8.61c-.12 0 .07-.29.32-.42A4.76 4.76 0 016.92 0a3.51 3.51 0 011 .1c.72.18.48.9.48 2.49a2 2 0 00.27 1.51c.16.11.54 0 1.51-1.67A13.77 13.77 0 0011 .68a.68.68 0 01.16-.23.72.72 0 01.28-.07h2.16a.84.84 0 01.76.22c.11.32-.25 1.06-1.13 2.27-1.44 2.01-1.61 1.82-.41 2.98z"/></symbol></svg>