<svg id="Слой_1" data-name="Слой 1" xmlns="http://www.w3.org/2000/svg" viewBox="0 0 20 33.31"><defs><style>.cls-1{fill:#000100;}</style></defs><title>ok</title><path class="cls-1" d="M8.36,23.46A12.94,12.94,0,0,1,1.46,21C1.21,20.8,1,20.62.73,20.4a2,2,0,0,1-.27-2.79A2,2,0,0,1,3.07,17a4,4,0,0,1,.57.34,11.32,11.32,0,0,0,12.55.11,3.4,3.4,0,0,1,1.22-.63,1.92,1.92,0,0,1,2.2.88,1.86,1.86,0,0,1-.13,2.45,10.13,10.13,0,0,1-3.65,2.36,17.13,17.13,0,0,1-4.14.93l0.45,0.48C14,25.86,16,27.78,17.89,29.72A1.9,1.9,0,0,1,18.31,32a2.27,2.27,0,0,1-2.13,1.33,2.08,2.08,0,0,1-1.35-.69c-1.45-1.46-2.92-2.89-4.34-4.37-0.41-.43-0.61-0.35-1,0-1.46,1.5-2.94,3-4.42,4.44a1.86,1.86,0,0,1-2.24.4A2.26,2.26,0,0,1,1.55,31a2.09,2.09,0,0,1,.7-1.4l5.68-5.69Z"/><path class="cls-1" d="M9.93,16.86a8.43,8.43,0,1,1,8.48-8.32A8.43,8.43,0,0,1,9.93,16.86Zm4.19-8.44A4.12,4.12,0,1,0,10,12.56,4.11,4.11,0,0,0,14.12,8.42Z"/></svg>