<svg id="Слой_1" data-name="Слой 1" xmlns="http://www.w3.org/2000/svg" viewBox="0 0 16.07 13.33"><defs><style>.cls-1{fill:#000100;}</style></defs><title>twitter</title><path class="cls-1" d="M16.07,1.57a6.48,6.48,0,0,1-1.89.54A3.36,3.36,0,0,0,15.62.24a6.56,6.56,0,0,1-2.09.82A3.21,3.21,0,0,0,11.11,0,3.33,3.33,0,0,0,7.83,3.36a3.57,3.57,0,0,0,.08.77A9.31,9.31,0,0,1,1.12.62,3.38,3.38,0,0,0,.68,2.31,3.33,3.33,0,0,0,2.14,5.1a3.21,3.21,0,0,1-1.5-.39v0A3.35,3.35,0,0,0,3.29,8a3.17,3.17,0,0,1-1.48.05,3.3,3.3,0,0,0,3.07,2.34A6.46,6.46,0,0,1,.78,11.86a6.56,6.56,0,0,1-.78,0,9.19,9.19,0,0,0,5.05,1.51,9.43,9.43,0,0,0,9.38-9.58c0-.15,0-0.29,0-0.44A6.66,6.66,0,0,0,16.07,1.57Z"/></svg>