<svg id="Слой_1" data-name="Слой 1" xmlns="http://www.w3.org/2000/svg" viewBox="0 0 14.39 8.47"><defs><style>.cls-1{fill:#000100;}</style></defs><title>vk</title><path class="cls-1" d="M12.82,5.85a6.51,6.51,0,0,1,1.43,1.71c0.48,0.82-.52.88-0.52,0.88l-1.92,0a1.32,1.32,0,0,1-1-.3C10.13,7.65,9.44,6.32,8.92,6.5S8.41,7.87,8.41,7.87a0.49,0.49,0,0,1-.12.3,0.47,0.47,0,0,1-.4.09H7A4.57,4.57,0,0,1,3.47,6.67,24.23,24.23,0,0,1,0,.87,0.45,0.45,0,0,1,0,.51,0.72,0.72,0,0,1,.47.38H2.53a0.53,0.53,0,0,1,.33.12A0.69,0.69,0,0,1,3,.77a13.74,13.74,0,0,0,.78,1.64c0.86,1.53,1.25,1.86,1.53,1.7,0.45-.24.32-2.16,0.32-2.16a2.18,2.18,0,0,0-.22-1A1,1,0,0,0,4.8.61c-0.12,0,.07-0.29.32-0.42A4.76,4.76,0,0,1,6.92,0a3.51,3.51,0,0,1,1,.1C8.64,0.28,8.4,1,8.4,2.59A2,2,0,0,0,8.67,4.1c0.16,0.11.54,0,1.51-1.67A13.77,13.77,0,0,0,11,.68,0.68,0.68,0,0,1,11.16.45,0.72,0.72,0,0,1,11.44.38h2.16a0.84,0.84,0,0,1,.76.22c0.11,0.32-.25,1.06-1.13,2.27C11.79,4.88,11.62,4.69,12.82,5.85Z"/></svg>